<svg version="1.1" id="Layer_1" xmlns="http://www.w3.org/2000/svg" xmlns:xlink="http://www.w3.org/1999/xlink" x="0px" y="0px"
	 width="100%" viewBox="0 0 1141 1141" enable-background="new 0 0 1141 1141" xml:space="preserve">
<path fill="#000000" opacity="1.000000" stroke="none" 
	d="
M1142.000000,260.000000 
	C1142.000000,553.910950 1142.000000,847.821838 1142.000000,1142.000000 
	C974.973267,1142.000000 807.946350,1142.000000 640.403687,1141.659668 
	C639.343201,1140.935303 638.810974,1140.531982 638.251892,1140.170288 
	C548.416016,1082.069946 483.267670,1003.368835 442.337067,904.652222 
	C422.306915,856.343445 410.415802,805.955750 406.201416,753.829468 
	C403.563354,721.199585 404.090912,688.593079 407.765411,656.022644 
	C411.020203,627.172546 416.969788,598.896851 424.879822,570.607178 
	C425.372742,569.139832 425.716278,568.029602 426.056427,566.918274 
	C455.625153,470.318207 508.352722,388.740204 586.002441,324.033203 
	C673.292175,251.292999 774.089050,211.958115 887.667542,205.823776 
	C943.358337,202.815918 997.935669,209.543289 1051.544922,224.768127 
	C1082.824585,233.651443 1112.815796,245.772263 1142.000000,260.000000 
z"/>
<path fill="#EE9084" opacity="1.000000" stroke="none" 
	d="
M1142.000000,259.531342 
	C1112.815796,245.772263 1082.824585,233.651443 1051.544922,224.768127 
	C997.935669,209.543289 943.358337,202.815918 887.667542,205.823776 
	C774.089050,211.958115 673.292175,251.292999 586.002441,324.033203 
	C508.352722,388.740204 455.625153,470.318207 426.056427,566.918274 
	C425.716278,568.029602 425.372742,569.139832 424.428101,570.599365 
	C422.159668,570.931091 420.493988,570.898743 418.828278,570.899109 
	C279.552185,570.931152 140.276093,570.965637 1.000000,571.000000 
	C1.000000,381.042175 1.000000,191.084366 1.000000,1.063278 
	C381.333344,1.063278 761.666687,1.063278 1142.000000,1.063278 
	C1142.000000,87.100891 1142.000000,173.081787 1142.000000,259.531342 
z"/>
<path fill="#AAA8E7" opacity="1.000000" stroke="none" 
	d="
M1.000000,571.468628 
	C140.276093,570.965637 279.552185,570.931152 418.828278,570.899109 
	C420.493988,570.898743 422.159668,570.931091 424.277100,570.955994 
	C416.969788,598.896851 411.020203,627.172546 407.765411,656.022644 
	C404.090912,688.593079 403.563354,721.199585 406.201416,753.829468 
	C410.415802,805.955750 422.306915,856.343445 442.337067,904.652222 
	C483.267670,1003.368835 548.416016,1082.069946 638.251892,1140.170288 
	C638.810974,1140.531982 639.343201,1140.935303 639.943970,1141.659668 
	C427.076996,1142.000000 214.154007,1142.000000 1.000000,1142.000000 
	C1.000000,951.979187 1.000000,761.958252 1.000000,571.468628 
z"/>
</svg>